<svg xmlns="http://www.w3.org/2000/svg" xmlns:xlink="http://www.w3.org/1999/xlink" preserveAspectRatio="xMidYMid" width="321" height="193" viewBox="0 0 321 193">
  <defs>
    <style>
      .cls-1 {
        fill: #333;
        fill-rule: evenodd;
      }
    </style>
  </defs>
  <path d="M122.846,11.209 C114.809,36.804 88.242,35.735 88.247,35.554 C83.079,136.378 158.390,178.993 158.390,178.993 C158.390,178.993 228.999,153.813 229.007,38.333 C194.890,34.115 189.773,10.989 189.773,10.989 C189.773,10.989 122.936,11.211 122.846,11.209 ZM126.680,17.378 C126.680,17.378 120.433,37.469 93.105,40.740 C92.748,134.057 158.469,175.962 158.469,175.962 C158.469,175.962 222.514,145.967 222.885,43.224 C187.962,34.270 185.621,16.943 185.621,16.943 L126.680,17.378 Z" class="cls-1"/>
  <path d="M204.674,91.124 C201.526,96.061 196.240,96.748 194.460,96.608 C194.522,95.642 194.585,94.677 194.647,93.714 C196.448,93.309 202.315,92.365 202.482,75.793 C202.558,69.021 201.234,62.182 198.841,57.263 C197.293,54.111 194.787,51.434 192.612,49.982 C192.368,53.334 192.090,70.417 191.952,80.779 C191.929,82.465 191.907,84.152 191.884,85.839 C191.748,96.081 191.426,123.931 191.576,127.454 C192.757,128.178 196.281,129.803 197.787,130.528 C197.858,131.355 197.929,132.181 198.000,133.005 C196.398,132.381 191.252,130.521 189.000,130.000 C185.996,129.231 180.198,127.885 180.000,128.000 C180.076,127.119 179.924,125.880 180.000,125.000 C180.753,124.827 182.889,125.561 185.534,126.308 C185.800,120.872 186.175,94.465 186.316,82.927 C186.337,81.273 186.357,79.619 186.377,77.965 C186.426,73.995 186.653,51.396 186.502,47.063 C185.557,45.656 182.296,43.473 181.056,42.747 C181.014,41.837 180.971,40.927 180.929,40.017 C182.506,40.471 189.928,44.268 192.166,46.032 C197.560,49.733 201.427,54.567 203.664,59.004 C207.701,67.246 208.013,74.108 208.005,76.726 C207.951,83.878 206.593,88.064 204.674,91.124 ZM165.296,40.209 C165.079,42.637 164.992,56.815 164.956,71.851 C164.950,74.377 164.944,76.903 164.938,79.430 C164.900,95.321 164.902,115.738 165.096,118.187 C166.352,118.944 169.359,119.802 170.359,120.108 C170.438,120.963 170.517,121.818 170.595,122.672 C169.497,122.352 164.286,121.907 161.175,121.929 C159.470,121.908 154.857,122.254 153.357,122.579 C153.420,121.724 153.482,120.869 153.545,120.013 C154.396,119.843 157.807,118.641 158.863,118.149 C159.057,113.008 159.082,90.370 159.068,78.378 C159.065,75.972 159.062,73.565 159.059,71.159 C159.054,67.121 158.976,44.240 158.759,40.089 C157.703,39.604 154.223,38.945 153.223,38.880 C153.132,38.040 153.040,37.200 152.948,36.361 C153.947,36.419 158.804,36.074 162.982,36.286 C165.679,36.319 170.211,36.733 171.102,36.708 C171.009,37.541 170.917,38.375 170.825,39.210 C169.775,39.249 167.194,39.849 165.296,40.209 ZM144.613,42.266 C143.303,45.017 128.061,129.950 127.605,132.016 C125.779,123.619 112.612,67.128 110.811,65.969 C110.249,66.256 109.511,66.652 108.167,67.961 C108.111,67.378 108.055,66.797 108.000,66.218 C109.329,64.563 111.714,61.687 114.211,58.938 C116.950,55.815 121.103,51.814 122.153,50.752 C122.085,51.587 122.016,52.420 121.948,53.253 C120.951,54.283 118.354,57.294 117.589,58.693 C117.812,60.502 127.902,105.720 129.319,110.374 C130.326,105.288 138.763,57.659 139.718,44.014 C138.739,43.916 136.641,44.237 135.021,44.485 C134.926,43.697 134.832,42.910 134.737,42.124 C135.441,41.964 139.042,40.389 142.197,39.272 C144.623,38.379 146.761,37.547 148.014,36.987 C147.933,37.876 147.852,38.765 147.772,39.653 C146.784,40.399 145.954,41.117 144.613,42.266 Z" class="cls-1"/>
  <path d="M7.840,99.128 C10.189,97.169 11.891,96.584 11.891,96.584 C11.891,96.584 13.200,96.052 12.708,95.119 C12.003,93.768 11.749,92.197 11.742,92.152 C11.553,91.089 10.916,91.468 10.916,91.472 C6.619,94.439 7.840,99.128 7.840,99.128 ZM8.465,51.396 C9.448,50.928 9.444,50.329 9.444,50.329 C9.463,46.191 8.375,45.289 8.375,45.289 C8.021,45.076 7.204,45.863 7.204,45.863 C7.204,45.863 3.122,53.593 5.073,53.013 C7.019,52.428 7.474,51.860 8.465,51.396 ZM10.765,35.442 C10.765,35.442 11.960,36.675 12.252,35.345 C12.553,34.019 14.182,32.960 14.182,32.960 C14.355,32.767 15.265,32.747 13.890,31.102 C11.882,28.700 5.565,30.736 7.347,31.983 C9.126,33.229 10.765,35.442 10.765,35.442 ZM12.324,38.615 C12.001,41.322 15.413,43.661 15.413,43.661 C15.413,43.661 11.890,42.537 11.050,43.159 C10.211,43.774 9.898,45.681 9.945,46.802 C10.007,48.385 10.305,49.408 10.305,49.408 C11.195,53.775 18.475,51.969 18.475,51.969 C19.237,51.738 19.604,52.372 19.415,52.864 C19.314,53.122 19.077,53.142 19.077,53.142 C16.095,54.366 15.505,56.225 15.505,56.225 C16.865,59.933 22.069,58.185 22.069,58.185 C22.849,58.176 22.866,59.375 22.866,59.375 C20.717,65.323 24.222,68.941 24.222,68.941 C24.348,68.926 25.167,68.657 26.287,66.110 C27.415,63.560 27.985,65.562 27.985,65.562 C26.218,74.125 30.767,77.190 30.767,77.190 C32.594,75.077 32.734,71.359 32.734,71.359 C33.797,74.900 36.738,76.642 38.330,76.377 C39.267,76.218 39.367,74.726 39.367,74.726 C39.379,72.143 40.672,66.392 40.672,66.392 C40.733,66.384 28.762,55.752 26.596,49.277 C24.758,43.776 26.173,44.014 26.657,39.544 C26.991,36.406 26.620,34.799 25.807,33.101 C24.890,31.190 22.291,31.546 20.804,32.157 C19.311,32.767 20.070,35.784 20.447,36.768 C20.827,37.751 20.095,40.858 19.721,38.831 C19.344,36.813 18.865,36.100 18.240,35.226 C17.610,34.356 16.749,33.682 15.282,33.948 C13.811,34.215 12.649,35.904 12.324,38.615 ZM22.252,30.691 C22.252,30.691 24.800,31.242 25.474,30.904 C26.154,30.562 25.865,29.819 25.865,29.819 C25.865,29.819 25.783,25.844 22.284,24.484 C21.706,24.264 21.453,28.734 21.725,29.549 C21.750,29.626 21.838,30.481 22.252,30.691 ZM34.602,44.048 C35.871,45.102 40.397,45.323 42.915,43.209 C45.425,41.093 46.964,40.870 47.386,40.819 C47.801,40.768 50.141,41.328 51.197,39.990 C52.432,38.417 51.260,37.290 51.260,37.290 C50.286,35.838 45.652,37.020 42.164,37.574 C38.674,38.127 35.493,35.703 35.403,32.625 C35.385,32.157 35.126,31.138 35.040,30.988 C33.814,28.908 32.598,31.285 32.598,31.285 C29.082,41.014 34.602,44.048 34.602,44.048 ZM47.053,35.689 C48.155,35.083 50.377,35.415 50.377,35.415 C52.862,36.070 53.321,37.762 53.194,39.121 C53.056,40.622 52.619,40.974 52.619,40.974 C51.541,42.573 47.176,42.346 47.176,42.346 C45.240,42.240 45.860,43.848 45.860,43.848 C46.699,48.090 49.301,48.034 49.296,47.992 C49.291,47.948 50.324,48.387 51.365,47.868 C52.416,47.351 53.220,47.274 53.220,47.274 C56.462,47.250 59.008,46.782 59.964,46.413 C62.192,45.568 61.508,44.816 62.257,44.354 C63.116,43.824 63.133,44.807 63.132,44.845 C63.133,45.549 62.231,47.007 60.707,47.427 C58.302,48.080 55.588,48.346 54.848,48.305 C54.388,48.284 54.552,48.185 53.594,48.353 C53.148,48.430 52.694,48.740 52.282,49.693 C51.812,50.782 49.860,51.646 47.564,52.401 C46.569,52.725 43.399,53.655 43.399,53.655 C43.890,56.096 46.198,58.183 46.198,58.183 C44.293,57.552 40.058,60.002 40.058,60.002 C41.191,66.627 47.537,65.210 47.537,65.210 C48.145,66.736 46.725,67.637 46.725,67.637 C50.618,71.513 54.720,69.033 54.720,69.033 C54.485,75.695 60.376,75.879 60.373,75.879 C60.054,72.432 61.498,70.102 61.498,70.102 C61.498,70.102 62.904,71.186 65.191,73.401 C67.484,75.623 70.273,74.163 70.273,74.163 C69.342,72.126 67.946,69.750 67.946,69.750 C67.946,69.750 65.502,65.443 67.716,66.769 C69.929,68.094 71.566,66.515 71.566,66.515 C71.487,63.730 70.182,59.148 70.182,59.148 C72.523,59.381 73.922,58.566 73.922,58.566 C73.253,54.127 71.343,50.700 71.343,50.700 C72.951,50.806 74.798,49.631 74.798,49.631 C74.283,45.088 72.334,41.408 72.329,41.408 C73.712,40.677 75.418,37.542 74.964,37.301 C74.513,37.053 73.724,36.198 72.668,33.401 C71.610,30.597 69.872,29.179 69.872,29.179 C71.062,23.397 69.560,20.690 69.560,20.690 C66.913,20.108 63.673,22.695 63.673,22.695 C59.736,20.377 54.977,21.986 54.715,21.975 C54.454,21.963 52.626,21.968 52.372,24.148 C52.114,26.335 52.894,27.919 52.894,27.919 C52.894,27.919 53.118,29.227 55.002,29.170 C56.883,29.112 57.119,28.482 58.321,28.985 C59.523,29.489 59.191,30.773 59.157,30.777 C59.128,30.781 58.950,32.178 56.928,31.738 C56.211,31.576 54.550,30.906 53.571,30.041 C52.538,29.126 52.073,27.834 51.689,27.378 C51.307,26.931 50.999,26.815 50.413,26.804 C49.102,26.769 44.247,28.150 44.247,28.150 C42.684,28.685 43.915,33.190 44.142,34.542 C44.370,35.888 45.953,36.298 47.053,35.689 ZM15.596,79.981 C15.672,79.085 16.627,77.460 16.627,77.460 C17.173,76.401 15.960,75.977 15.960,75.977 C11.232,74.888 10.464,80.160 10.464,80.160 C11.238,79.774 14.637,80.830 14.637,80.830 C14.637,80.830 15.526,80.804 15.596,79.981 ZM82.037,60.122 C82.090,60.543 81.802,64.624 84.215,67.867 C84.215,67.867 76.554,64.923 76.066,71.093 C76.066,71.093 75.716,74.665 78.510,76.736 C78.510,76.736 80.928,70.333 86.206,74.603 C86.206,74.603 79.127,73.220 79.965,79.059 C79.967,79.059 79.859,81.403 82.203,83.523 C82.203,83.523 83.314,79.255 88.811,80.484 C88.811,80.484 82.075,81.382 83.934,88.134 C83.934,88.134 84.710,91.013 87.235,92.212 C87.235,92.212 86.785,89.202 89.305,88.510 C90.364,88.216 91.645,88.163 93.199,89.510 C94.934,91.013 95.365,94.017 95.198,96.456 C95.051,98.601 94.405,100.283 94.329,100.432 C94.148,100.807 92.077,107.814 83.279,104.750 C82.128,104.345 80.268,102.828 78.903,100.983 C70.678,89.842 67.312,75.814 67.312,75.814 C67.312,75.814 64.694,75.444 61.962,72.031 C61.962,72.031 61.085,74.761 61.468,77.387 C61.468,77.387 55.365,77.607 53.573,71.155 C53.573,71.155 48.361,72.002 45.108,67.747 C45.108,67.747 45.944,66.609 46.001,66.514 C46.009,66.498 44.174,66.770 42.148,65.393 C41.844,65.186 40.429,74.047 40.461,75.413 C40.506,77.391 37.807,80.495 27.935,84.509 C27.935,84.509 23.515,86.254 23.093,81.135 C23.093,81.135 22.715,77.523 19.935,77.149 C17.148,76.773 16.513,81.763 16.513,81.763 C16.342,83.590 16.684,84.759 18.594,85.473 C20.509,86.191 19.273,87.284 18.662,87.098 C18.055,86.916 16.200,85.073 14.494,86.572 C12.781,88.072 13.263,90.943 13.258,91.455 C13.254,91.974 13.624,95.548 15.963,96.041 C15.963,96.041 17.146,96.488 17.933,95.322 C18.955,93.820 21.177,93.854 21.177,93.854 C21.177,93.854 20.912,95.440 18.651,96.142 C16.392,96.851 17.318,100.182 17.477,100.414 C17.634,100.655 18.875,104.468 21.911,104.188 C24.941,103.906 25.537,99.696 25.609,99.176 C25.670,98.648 25.899,96.211 27.283,95.783 C28.667,95.361 28.806,97.060 28.806,97.060 C28.806,97.060 29.105,99.526 28.849,100.672 C28.849,100.672 32.543,101.518 33.302,92.725 C33.302,92.725 34.203,89.953 36.863,93.587 C39.525,97.223 43.777,93.608 43.658,92.074 C43.658,92.074 40.937,91.819 40.484,89.019 C40.222,87.410 41.236,87.719 41.468,88.033 C41.705,88.350 46.198,93.144 49.513,89.297 C49.513,89.297 47.886,87.012 46.879,85.831 C45.793,84.560 47.051,84.168 47.519,84.269 C48.363,84.436 62.799,84.841 67.204,95.331 C67.204,95.331 68.958,97.442 67.855,101.800 C66.752,106.153 62.544,111.741 64.679,129.910 C64.679,129.910 64.738,133.092 67.755,131.605 C67.755,131.605 71.734,130.259 75.215,127.514 C76.760,126.297 76.634,128.459 76.560,128.387 C76.485,128.303 76.368,134.349 72.609,139.882 C72.609,139.882 72.139,141.924 66.894,141.177 C66.894,141.177 62.911,138.993 62.298,142.513 C62.298,142.513 62.041,144.182 62.011,146.082 C61.979,147.977 62.478,148.842 65.039,148.470 C65.952,148.339 65.766,149.604 65.173,149.574 C65.109,149.566 60.445,149.889 60.181,152.501 C60.082,153.533 59.737,154.297 60.902,156.287 C61.889,157.981 63.716,159.047 63.652,159.055 C63.586,159.063 65.221,159.643 66.061,158.507 C66.061,158.502 67.655,156.590 68.017,154.738 C68.549,152.008 69.313,154.664 69.022,155.478 C68.727,156.288 66.041,158.484 68.729,160.722 C68.729,160.722 74.347,164.973 75.360,158.843 C75.782,156.309 74.941,154.844 75.267,152.134 C75.591,149.423 76.479,149.227 77.022,149.426 C77.569,149.618 78.503,149.246 80.502,153.909 C80.502,153.909 82.697,145.120 79.437,142.416 C79.437,142.416 80.601,140.204 83.697,139.917 C86.793,139.625 88.118,133.354 88.118,133.354 C88.118,133.354 85.631,134.800 83.097,134.438 C81.655,134.233 82.605,133.077 82.605,133.077 C82.605,133.077 83.082,131.899 86.833,130.844 C89.793,130.006 90.068,124.165 90.068,124.165 C90.068,124.165 86.350,126.152 85.053,125.291 C83.908,124.525 86.001,123.318 86.332,123.193 C87.174,122.875 91.759,120.380 91.407,115.861 C91.407,115.861 88.981,114.948 84.675,116.807 C80.638,118.546 77.755,119.454 76.409,119.618 C75.057,119.782 74.786,118.613 75.089,117.884 C75.389,117.155 76.653,113.561 76.507,108.065 C76.507,108.065 88.006,118.992 96.580,107.960 C100.272,103.209 104.830,94.425 94.765,78.474 C93.551,76.549 91.631,73.081 93.185,68.672 C93.185,68.672 93.870,65.918 96.685,66.354 C99.120,66.729 99.824,70.195 98.953,73.226 C98.953,73.226 104.593,73.237 103.889,64.446 C103.257,56.602 97.098,56.315 97.098,56.315 C97.098,56.315 88.050,54.829 88.646,66.210 C88.646,66.210 85.153,58.280 92.691,54.954 C94.655,54.087 98.112,51.285 99.337,49.499 C100.312,48.066 106.793,40.842 100.576,31.524 C100.576,31.524 100.642,33.365 100.187,35.056 C99.629,37.119 98.445,40.672 96.175,42.744 C93.346,45.325 90.702,47.376 90.719,48.349 C90.719,48.349 87.892,47.611 94.449,42.035 C99.451,37.785 99.752,27.672 93.837,22.186 C93.836,22.177 95.672,31.780 91.358,35.356 C88.634,37.602 85.646,42.033 85.179,43.551 C85.179,43.551 83.259,41.974 88.750,35.886 C92.465,31.764 91.244,22.579 87.167,21.782 C87.167,21.782 88.583,26.079 84.869,30.758 C81.841,34.566 78.436,40.667 78.055,42.861 C78.055,42.861 75.651,50.478 82.534,57.216 C82.534,57.216 81.883,58.851 82.037,60.122 ZM71.048,163.511 C70.211,163.818 68.748,162.754 68.748,162.754 C67.924,162.729 67.725,163.688 67.725,163.688 C68.084,168.060 71.660,169.810 71.660,169.810 C71.669,169.365 71.787,165.484 71.806,165.455 C71.830,165.427 71.891,163.203 71.048,163.511 ZM59.895,157.601 C59.383,156.713 58.950,157.422 58.950,157.422 C56.169,162.610 58.779,166.295 58.779,166.295 C60.180,163.146 61.487,161.646 61.486,161.650 C61.486,161.650 62.455,160.413 61.720,159.821 C60.655,158.955 59.918,157.637 59.895,157.601 ZM60.525,146.183 C60.319,145.298 60.676,143.262 60.676,143.262 C60.836,141.976 59.626,142.210 59.627,142.215 C55.085,143.655 56.009,149.032 56.009,149.032 C56.576,148.268 59.929,147.486 59.929,147.486 C59.929,147.486 60.716,146.997 60.525,146.183 ZM29.748,114.215 C29.997,113.397 31.259,112.176 31.259,112.176 C32.005,111.355 30.899,110.539 30.900,110.548 C26.469,107.893 24.663,112.637 24.663,112.637 C25.499,112.536 28.629,114.692 28.629,114.692 C28.629,114.692 29.509,114.972 29.748,114.215 ZM54.873,130.246 C55.696,132.567 54.530,134.933 54.530,134.933 C54.530,134.933 58.461,134.544 59.413,127.883 C60.365,121.223 58.456,115.683 58.456,115.683 C58.295,112.779 57.264,109.112 59.789,107.342 C62.314,105.569 64.358,108.704 64.355,108.704 C64.623,107.679 66.549,101.782 66.549,101.782 C62.082,96.640 58.299,94.518 58.162,94.451 C58.022,94.380 50.471,90.728 48.515,97.171 C47.290,101.195 50.047,109.307 52.047,114.861 C53.244,118.184 53.969,120.620 53.966,120.621 C51.847,120.878 50.076,120.830 44.386,121.181 C38.688,121.526 38.248,118.129 37.710,117.251 C37.466,116.851 37.149,110.172 33.674,112.186 C28.421,115.236 30.969,118.671 30.969,118.671 C31.362,119.186 33.443,120.778 33.580,120.849 C33.725,120.923 34.324,122.137 33.214,122.105 C32.101,122.065 31.113,120.377 29.979,120.169 C28.846,119.967 28.254,119.948 27.477,121.590 C26.701,123.236 27.085,125.864 27.978,128.423 C28.878,130.983 31.165,128.892 31.535,128.679 C31.898,128.463 32.988,127.209 33.847,127.876 C34.714,128.554 34.316,129.032 33.947,129.249 C33.583,129.467 31.740,129.860 31.145,131.394 C30.549,132.933 31.152,134.667 31.152,134.667 C31.152,134.667 32.939,138.669 35.008,138.507 C37.072,138.342 37.163,137.469 38.507,134.030 C39.852,130.598 40.129,131.254 40.395,130.792 C40.665,130.325 41.920,129.917 42.183,131.005 C43.004,134.390 41.069,135.788 41.069,135.788 C45.858,137.102 47.410,130.027 47.410,130.027 C47.410,130.027 48.213,128.552 48.835,130.454 C49.754,133.272 48.164,135.705 48.164,135.705 C52.629,135.939 53.745,130.114 53.746,130.119 C53.746,130.119 54.375,128.836 54.873,130.246 ZM29.774,135.133 C29.102,134.443 28.484,134.991 28.484,134.991 C26.694,138.525 28.804,142.746 28.804,142.746 C29.028,142.413 30.972,139.641 31.004,139.637 C31.034,139.634 32.146,138.035 31.306,137.580 C30.469,137.123 29.774,135.133 29.774,135.133 ZM25.938,123.931 C25.936,122.858 25.241,123.031 25.241,123.031 C20.474,124.596 20.869,129.451 20.869,129.451 C23.526,128.278 25.313,128.233 25.313,128.233 C25.313,128.233 26.704,128.098 26.379,127.065 C25.911,125.561 25.933,123.976 25.938,123.931 ZM18.653,106.875 C18.687,106.862 19.599,105.059 18.728,104.755 C17.856,104.458 16.957,102.599 16.957,102.599 C16.223,102.041 15.678,102.707 15.678,102.707 C14.312,106.567 16.837,110.394 16.837,110.394 C17.018,110.024 18.623,106.884 18.653,106.875 Z" class="cls-1"/>
  <path d="M306.734,99.419 C304.395,97.463 302.699,96.879 302.699,96.879 C302.699,96.879 301.395,96.348 301.885,95.416 C302.587,94.067 302.840,92.498 302.847,92.454 C303.036,91.392 303.671,91.770 303.670,91.774 C307.951,94.737 306.734,99.419 306.734,99.419 ZM306.112,51.757 C305.133,51.290 305.137,50.692 305.137,50.692 C305.118,46.560 306.202,45.659 306.202,45.659 C306.555,45.447 307.368,46.232 307.368,46.232 C307.368,46.232 311.435,53.951 309.491,53.372 C307.553,52.788 307.099,52.220 306.112,51.757 ZM303.821,35.827 C303.821,35.827 302.631,37.058 302.339,35.730 C302.040,34.406 300.417,33.348 300.417,33.348 C300.244,33.155 299.338,33.136 300.708,31.493 C302.708,29.095 309.002,31.127 307.226,32.373 C305.454,33.617 303.821,35.827 303.821,35.827 ZM302.268,38.995 C302.590,41.698 299.190,44.034 299.190,44.034 C299.190,44.034 302.701,42.911 303.537,43.532 C304.372,44.146 304.685,46.051 304.638,47.170 C304.576,48.751 304.279,49.772 304.279,49.772 C303.392,54.132 296.140,52.329 296.140,52.329 C295.380,52.099 295.015,52.732 295.204,53.223 C295.304,53.481 295.540,53.501 295.540,53.501 C298.511,54.723 299.099,56.579 299.099,56.579 C297.744,60.282 292.560,58.536 292.560,58.536 C291.783,58.527 291.766,59.724 291.766,59.724 C293.906,65.664 290.415,69.277 290.415,69.277 C290.289,69.261 289.473,68.993 288.357,66.449 C287.233,63.904 286.666,65.902 286.666,65.902 C288.427,74.452 283.895,77.514 283.895,77.514 C282.074,75.404 281.935,71.691 281.935,71.691 C280.875,75.226 277.946,76.966 276.360,76.701 C275.426,76.543 275.327,75.053 275.327,75.053 C275.315,72.474 274.026,66.731 274.026,66.731 C273.966,66.723 285.891,56.107 288.050,49.642 C289.880,44.149 288.471,44.386 287.989,39.922 C287.656,36.789 288.026,35.185 288.835,33.489 C289.749,31.581 292.338,31.936 293.820,32.546 C295.308,33.156 294.551,36.168 294.175,37.150 C293.797,38.132 294.526,41.234 294.899,39.211 C295.274,37.196 295.752,36.484 296.374,35.610 C297.002,34.742 297.860,34.069 299.321,34.335 C300.786,34.601 301.944,36.288 302.268,38.995 ZM292.377,31.082 C292.377,31.082 289.839,31.632 289.168,31.296 C288.490,30.954 288.778,30.211 288.778,30.211 C288.778,30.211 288.859,26.243 292.345,24.884 C292.921,24.665 293.173,29.128 292.902,29.942 C292.878,30.019 292.789,30.873 292.377,31.082 ZM280.074,44.420 C278.810,45.473 274.301,45.693 271.792,43.583 C269.292,41.469 267.759,41.246 267.338,41.195 C266.924,41.145 264.593,41.704 263.541,40.368 C262.311,38.797 263.478,37.671 263.478,37.671 C264.449,36.222 269.065,37.402 272.540,37.956 C276.017,38.507 279.186,36.087 279.276,33.014 C279.294,32.546 279.552,31.529 279.638,31.379 C280.859,29.303 282.070,31.675 282.070,31.675 C285.573,41.391 280.074,44.420 280.074,44.420 ZM267.669,36.074 C266.572,35.468 264.359,35.800 264.359,35.800 C261.883,36.454 261.426,38.143 261.552,39.500 C261.690,40.999 262.125,41.350 262.125,41.350 C263.199,42.947 267.548,42.721 267.548,42.721 C269.476,42.614 268.858,44.220 268.858,44.220 C268.023,48.456 265.430,48.400 265.435,48.358 C265.440,48.314 264.411,48.753 263.374,48.234 C262.327,47.718 261.526,47.641 261.526,47.641 C258.296,47.617 255.760,47.150 254.808,46.781 C252.588,45.938 253.270,45.187 252.523,44.725 C251.667,44.197 251.651,45.177 251.652,45.216 C251.650,45.918 252.549,47.374 254.067,47.794 C256.463,48.446 259.167,48.712 259.904,48.670 C260.363,48.649 260.199,48.550 261.153,48.719 C261.598,48.795 262.050,49.105 262.461,50.057 C262.928,51.144 264.874,52.006 267.160,52.761 C268.152,53.085 271.310,54.013 271.310,54.013 C270.821,56.450 268.522,58.534 268.522,58.534 C270.419,57.904 274.638,60.350 274.638,60.350 C273.510,66.966 267.188,65.551 267.188,65.551 C266.582,67.075 267.997,67.974 267.997,67.974 C264.118,71.845 260.031,69.368 260.031,69.368 C260.266,76.021 254.397,76.204 254.401,76.204 C254.718,72.762 253.279,70.436 253.279,70.436 C253.279,70.436 251.879,71.518 249.600,73.730 C247.316,75.949 244.537,74.490 244.537,74.490 C245.465,72.457 246.856,70.084 246.856,70.084 C246.856,70.084 249.290,65.783 247.085,67.108 C244.880,68.430 243.250,66.854 243.250,66.854 C243.328,64.073 244.628,59.498 244.628,59.498 C242.295,59.730 240.902,58.916 240.902,58.916 C241.568,54.484 243.471,51.062 243.471,51.062 C241.869,51.168 240.029,49.995 240.029,49.995 C240.542,45.458 242.484,41.784 242.489,41.784 C241.112,41.054 239.411,37.924 239.864,37.683 C240.314,37.435 241.100,36.582 242.151,33.788 C243.205,30.989 244.937,29.573 244.937,29.573 C243.751,23.799 245.248,21.096 245.248,21.096 C247.885,20.515 251.112,23.099 251.112,23.099 C255.035,20.783 259.776,22.390 260.036,22.379 C260.297,22.368 262.118,22.372 262.371,24.549 C262.628,26.733 261.851,28.315 261.851,28.315 C261.851,28.315 261.628,29.621 259.750,29.564 C257.876,29.506 257.642,28.877 256.444,29.379 C255.247,29.882 255.578,31.165 255.611,31.169 C255.640,31.172 255.818,32.568 257.832,32.128 C258.546,31.966 260.201,31.298 261.176,30.433 C262.205,29.519 262.668,28.229 263.051,27.774 C263.432,27.328 263.739,27.212 264.322,27.202 C265.629,27.166 270.465,28.545 270.465,28.545 C272.022,29.080 270.796,33.578 270.570,34.928 C270.342,36.272 268.765,36.681 267.669,36.074 ZM299.008,80.300 C298.932,79.405 297.981,77.783 297.981,77.783 C297.437,76.725 298.645,76.303 298.645,76.303 C303.355,75.215 304.121,80.479 304.121,80.479 C303.350,80.094 299.964,81.148 299.964,81.148 C299.964,81.148 299.078,81.122 299.008,80.300 ZM232.818,60.470 C232.765,60.891 233.052,64.965 230.648,68.204 C230.648,68.204 238.280,65.264 238.767,71.426 C238.767,71.426 239.115,74.992 236.332,77.060 C236.332,77.060 233.922,70.667 228.665,74.930 C228.665,74.930 235.717,73.549 234.882,79.380 C234.880,79.379 234.988,81.720 232.653,83.837 C232.653,83.837 231.545,79.575 226.069,80.802 C226.069,80.802 232.780,81.700 230.928,88.441 C230.928,88.441 230.155,91.316 227.639,92.513 C227.639,92.513 228.088,89.508 225.577,88.817 C224.522,88.524 223.247,88.470 221.698,89.816 C219.970,91.316 219.540,94.316 219.706,96.751 C219.853,98.893 220.497,100.572 220.572,100.721 C220.753,101.096 222.816,108.093 231.581,105.033 C232.727,104.628 234.580,103.114 235.940,101.271 C244.134,90.147 247.487,76.139 247.487,76.139 C247.487,76.139 250.096,75.769 252.817,72.361 C252.817,72.361 253.691,75.088 253.309,77.710 C253.309,77.710 259.390,77.929 261.175,71.487 C261.175,71.487 266.367,72.333 269.607,68.084 C269.607,68.084 268.775,66.948 268.718,66.853 C268.710,66.837 270.538,67.108 272.556,65.734 C272.859,65.527 274.269,74.375 274.237,75.739 C274.192,77.714 276.881,80.813 286.716,84.822 C286.716,84.822 291.119,86.564 291.539,81.452 C291.539,81.452 291.916,77.845 294.685,77.473 C297.462,77.096 298.095,82.080 298.095,82.080 C298.265,83.904 297.924,85.071 296.021,85.784 C294.113,86.501 295.345,87.593 295.953,87.406 C296.559,87.225 298.407,85.385 300.106,86.882 C301.813,88.379 301.333,91.246 301.338,91.757 C301.341,92.275 300.973,95.845 298.643,96.336 C298.643,96.336 297.464,96.783 296.680,95.619 C295.661,94.119 293.448,94.153 293.448,94.153 C293.448,94.153 293.712,95.737 295.964,96.438 C298.215,97.145 297.292,100.471 297.135,100.703 C296.977,100.944 295.742,104.751 292.717,104.472 C289.699,104.191 289.105,99.987 289.033,99.467 C288.972,98.940 288.744,96.507 287.366,96.079 C285.986,95.658 285.848,97.354 285.848,97.354 C285.848,97.354 285.550,99.816 285.805,100.961 C285.805,100.961 282.125,101.806 281.368,93.025 C281.368,93.025 280.471,90.257 277.822,93.886 C275.170,97.517 270.933,93.907 271.052,92.376 C271.052,92.376 273.763,92.121 274.214,89.325 C274.475,87.718 273.464,88.027 273.234,88.340 C272.997,88.657 268.521,93.444 265.219,89.602 C265.219,89.602 266.840,87.321 267.843,86.142 C268.925,84.872 267.672,84.481 267.206,84.582 C266.365,84.749 251.983,85.153 247.595,95.628 C247.595,95.628 245.848,97.736 246.946,102.087 C248.045,106.434 252.238,112.013 250.110,130.156 C250.110,130.156 250.052,133.334 247.046,131.848 C247.046,131.848 243.082,130.505 239.614,127.763 C238.075,126.548 238.200,128.708 238.274,128.635 C238.349,128.552 238.465,134.588 242.210,140.113 C242.210,140.113 242.679,142.152 247.904,141.407 C247.904,141.407 251.871,139.225 252.482,142.741 C252.482,142.741 252.738,144.407 252.768,146.304 C252.800,148.197 252.303,149.060 249.751,148.689 C248.842,148.558 249.027,149.821 249.618,149.791 C249.682,149.783 254.329,150.106 254.592,152.714 C254.690,153.745 255.033,154.507 253.873,156.494 C252.890,158.186 251.069,159.251 251.134,159.258 C251.199,159.266 249.571,159.845 248.733,158.711 C248.734,158.707 247.145,156.796 246.785,154.948 C246.255,152.222 245.493,154.874 245.784,155.687 C246.078,156.495 248.753,158.689 246.076,160.923 C246.076,160.923 240.479,165.167 239.470,159.046 C239.049,156.517 239.887,155.053 239.562,152.348 C239.240,149.640 238.355,149.445 237.814,149.643 C237.269,149.835 236.339,149.464 234.347,154.120 C234.347,154.120 232.161,145.344 235.408,142.643 C235.408,142.643 234.248,140.435 231.164,140.149 C228.080,139.857 226.760,133.595 226.760,133.595 C226.760,133.595 229.238,135.039 231.762,134.677 C233.198,134.472 232.252,133.318 232.252,133.318 C232.252,133.318 231.777,132.142 228.040,131.089 C225.091,130.251 224.817,124.419 224.817,124.419 C224.817,124.419 228.521,126.403 229.813,125.544 C230.954,124.779 228.869,123.574 228.539,123.448 C227.701,123.132 223.132,120.640 223.484,116.128 C223.484,116.128 225.900,115.216 230.190,117.073 C234.211,118.808 237.084,119.716 238.424,119.879 C239.772,120.043 240.041,118.876 239.740,118.148 C239.440,117.420 238.182,113.831 238.327,108.343 C238.327,108.343 226.871,119.254 218.330,108.238 C214.652,103.494 210.111,94.723 220.138,78.796 C221.347,76.873 223.260,73.410 221.712,69.008 C221.712,69.008 221.029,66.257 218.225,66.693 C215.799,67.067 215.098,70.529 215.966,73.555 C215.966,73.555 210.347,73.566 211.048,64.788 C211.678,56.956 217.814,56.669 217.814,56.669 C217.814,56.669 226.828,55.186 226.234,66.549 C226.234,66.549 229.714,58.631 222.204,55.310 C220.247,54.444 216.803,51.646 215.584,49.862 C214.612,48.432 208.155,41.219 214.349,31.915 C214.349,31.915 214.283,33.752 214.736,35.441 C215.293,37.501 216.471,41.049 218.733,43.118 C221.552,45.695 224.185,47.743 224.168,48.715 C224.168,48.715 226.985,47.978 220.453,42.409 C215.470,38.167 215.170,28.068 221.063,22.590 C221.064,22.581 219.234,32.170 223.532,35.740 C226.246,37.983 229.223,42.408 229.688,43.923 C229.688,43.923 231.601,42.349 226.130,36.270 C222.429,32.154 223.645,22.983 227.707,22.187 C227.707,22.187 226.296,26.477 229.997,31.149 C233.013,34.952 236.405,41.044 236.785,43.234 C236.785,43.234 239.179,50.841 232.323,57.568 C232.323,57.568 232.972,59.201 232.818,60.470 ZM243.765,163.707 C244.599,164.015 246.057,162.951 246.057,162.951 C246.878,162.927 247.076,163.884 247.076,163.884 C246.718,168.250 243.156,169.997 243.156,169.997 C243.147,169.553 243.029,165.678 243.010,165.649 C242.986,165.621 242.926,163.400 243.765,163.707 ZM254.877,157.806 C255.387,156.920 255.818,157.628 255.818,157.628 C258.588,162.808 255.988,166.488 255.988,166.488 C254.592,163.343 253.290,161.845 253.291,161.850 C253.291,161.850 252.326,160.614 253.058,160.023 C254.119,159.158 254.853,157.842 254.877,157.806 ZM254.249,146.405 C254.453,145.522 254.099,143.488 254.099,143.488 C253.938,142.204 255.144,142.438 255.143,142.443 C259.668,143.881 258.747,149.250 258.747,149.250 C258.182,148.488 254.843,147.706 254.843,147.706 C254.843,147.706 254.059,147.218 254.249,146.405 ZM284.909,114.484 C284.662,113.668 283.404,112.448 283.404,112.448 C282.661,111.628 283.763,110.813 283.762,110.822 C288.176,108.171 289.975,112.909 289.975,112.909 C289.142,112.807 286.024,114.960 286.024,114.960 C286.024,114.960 285.147,115.240 284.909,114.484 ZM259.879,130.492 C259.059,132.809 260.221,135.171 260.221,135.171 C260.221,135.171 256.304,134.783 255.356,128.132 C254.409,121.481 256.310,115.950 256.310,115.950 C256.470,113.050 257.497,109.389 254.981,107.621 C252.466,105.851 250.430,108.981 250.433,108.981 C250.167,107.957 248.247,102.069 248.247,102.069 C252.697,96.935 256.467,94.816 256.603,94.749 C256.743,94.678 264.264,91.031 266.213,97.465 C267.434,101.483 264.687,109.583 262.695,115.129 C261.503,118.447 260.780,120.880 260.783,120.880 C262.894,121.137 264.658,121.090 270.327,121.440 C276.003,121.785 276.441,118.393 276.977,117.516 C277.220,117.116 277.536,110.447 280.998,112.458 C286.232,115.503 283.693,118.934 283.693,118.934 C283.302,119.448 281.228,121.037 281.092,121.109 C280.948,121.182 280.350,122.395 281.457,122.362 C282.566,122.323 283.550,120.637 284.680,120.429 C285.808,120.228 286.398,120.209 287.172,121.848 C287.945,123.492 287.562,126.116 286.673,128.671 C285.776,131.228 283.498,129.139 283.129,128.927 C282.768,128.712 281.682,127.459 280.826,128.125 C279.962,128.802 280.359,129.279 280.727,129.496 C281.089,129.714 282.925,130.106 283.518,131.638 C284.112,133.174 283.511,134.906 283.511,134.906 C283.511,134.906 281.730,138.903 279.669,138.740 C277.613,138.576 277.523,137.704 276.184,134.270 C274.844,130.843 274.568,131.498 274.303,131.037 C274.034,130.570 272.784,130.163 272.521,131.249 C271.704,134.629 273.631,136.025 273.631,136.025 C268.860,137.338 267.314,130.273 267.314,130.273 C267.314,130.273 266.514,128.800 265.895,130.699 C264.979,133.513 266.563,135.942 266.563,135.942 C262.115,136.177 261.003,130.360 261.002,130.364 C261.002,130.364 260.376,129.084 259.879,130.492 ZM284.884,135.371 C285.553,134.682 286.169,135.229 286.169,135.229 C287.952,138.758 285.850,142.973 285.850,142.973 C285.627,142.641 283.690,139.873 283.658,139.869 C283.628,139.865 282.520,138.269 283.357,137.815 C284.191,137.358 284.884,135.371 284.884,135.371 ZM288.706,124.185 C288.707,123.115 289.400,123.287 289.400,123.287 C294.149,124.850 293.755,129.697 293.755,129.697 C291.108,128.526 289.328,128.481 289.328,128.481 C289.328,128.481 287.943,128.347 288.266,127.315 C288.732,125.813 288.710,124.231 288.706,124.185 ZM295.963,107.155 C295.928,107.142 295.020,105.341 295.888,105.038 C296.757,104.742 297.652,102.885 297.652,102.885 C298.384,102.328 298.926,102.993 298.926,102.993 C300.288,106.847 297.772,110.669 297.772,110.669 C297.591,110.299 295.993,107.163 295.963,107.155 Z" class="cls-1"/>
  <path d="M133.956,175.342 C131.894,175.682 131.758,174.602 131.855,174.087 L129.862,174.649 C130.078,178.999 150.131,175.877 152.061,182.802 C152.742,179.338 143.856,173.684 133.956,175.342 ZM132.331,173.924 C133.029,174.778 132.686,175.428 136.176,174.346 C138.731,173.554 141.530,175.485 142.962,173.039 C141.229,172.477 137.245,172.600 132.331,173.924 ZM142.646,172.598 C137.444,170.343 132.780,164.651 128.141,163.611 C121.193,162.807 112.515,169.162 97.886,169.529 C85.504,169.835 73.621,167.249 59.525,156.300 C58.718,158.202 58.349,160.601 57.994,162.084 C57.318,163.927 55.146,162.793 54.079,161.720 C52.808,160.445 51.802,161.181 52.335,162.133 C53.275,163.358 52.988,163.284 55.614,165.453 C66.477,174.439 83.354,180.605 100.808,180.926 C114.656,181.193 131.504,170.115 142.646,172.598 ZM57.551,160.660 C58.039,156.961 59.614,152.603 61.193,149.583 C61.057,148.392 58.846,147.582 57.946,148.392 C52.339,155.260 48.728,156.327 48.912,158.089 C50.505,155.377 57.630,157.052 57.551,160.660 ZM51.773,163.280 C50.401,161.763 50.460,160.122 52.232,160.001 C53.103,159.935 54.085,161.199 55.100,161.762 C56.158,162.347 56.801,161.893 56.837,161.051 C56.975,159.471 54.493,158.195 53.320,157.937 C51.934,157.625 49.342,157.262 48.717,159.322 C47.673,162.764 52.725,167.879 61.728,173.318 C68.594,177.468 77.985,178.064 79.313,186.462 C80.961,183.442 79.373,179.831 74.793,176.929 C66.538,174.315 56.766,168.781 51.773,163.280 Z" class="cls-1"/>
  <path d="M186.050,174.982 C188.102,175.318 188.237,174.249 188.141,173.739 L190.125,174.296 C189.909,178.603 169.954,175.511 168.033,182.369 C167.355,178.939 176.198,173.341 186.050,174.982 ZM187.667,173.578 C186.973,174.423 187.314,175.067 183.841,173.995 C181.298,173.212 178.513,175.124 177.087,172.701 C178.812,172.145 182.777,172.267 187.667,173.578 ZM177.402,172.264 C182.579,170.032 187.220,164.395 191.837,163.365 C198.752,162.570 207.387,168.863 221.946,169.226 C234.268,169.529 246.094,166.968 260.122,156.126 C260.925,158.010 261.292,160.385 261.646,161.853 C262.318,163.678 264.479,162.556 265.541,161.493 C266.806,160.230 267.807,160.959 267.277,161.902 C266.341,163.115 266.627,163.042 264.014,165.189 C253.203,174.088 236.408,180.194 219.038,180.511 C205.257,180.775 188.490,169.807 177.402,172.264 ZM262.086,160.444 C261.600,156.780 260.033,152.465 258.461,149.474 C258.597,148.295 260.797,147.493 261.693,148.295 C267.272,155.096 270.866,156.153 270.683,157.898 C269.098,155.212 262.007,156.871 262.086,160.444 ZM267.836,163.038 C269.201,161.535 269.143,159.911 267.380,159.791 C266.512,159.726 265.535,160.977 264.525,161.534 C263.473,162.114 262.832,161.665 262.797,160.830 C262.659,159.266 265.130,158.003 266.297,157.747 C267.676,157.438 270.255,157.079 270.878,159.119 C271.916,162.527 266.889,167.592 257.929,172.978 C251.096,177.087 241.751,177.677 240.429,185.993 C238.789,183.003 240.369,179.427 244.927,176.554 C253.142,173.965 262.867,168.485 267.836,163.038 Z" class="cls-1"/>
</svg>
